<?xml version="1.0" encoding="iso-8859-1"?>
<!-- Generator: Adobe Illustrator 16.0.0, SVG Export Plug-In . SVG Version: 6.00 Build 0)  -->
<!DOCTYPE svg PUBLIC "-//W3C//DTD SVG 1.1//EN" "http://www.w3.org/Graphics/SVG/1.1/DTD/svg11.dtd">
<svg version="1.1" id="Capa_1" xmlns="http://www.w3.org/2000/svg" xmlns:xlink="http://www.w3.org/1999/xlink" x="0px" y="0px"
	 width="349.402px" height="349.401px" viewBox="0 0 349.402 349.401" style="enable-background:new 0 0 349.402 349.401;"
	 xml:space="preserve">
<g>
	<g>
		<path d="M102.4,88.694c0-14.818,12.059-26.876,26.878-26.876h91.381c14.82,0,26.878,12.058,26.878,26.876v5.838l33.716-33.714
			c-27.868-26.026-65.24-42.004-106.284-42.004c-85.954,0-155.887,69.934-155.887,155.888c0,41.045,15.977,78.414,41.998,106.279
			l41.321-41.319V88.694z"/>
		<path d="M113.151,244.119v16.587c0,8.895,7.236,16.127,16.127,16.127h91.381c8.889,0,16.126-7.232,16.126-16.127V120.485
			l-8.062,8.062v99.681c0,2.972-2.399,5.376-5.376,5.376s-5.376-2.404-5.376-5.376v-88.93L113.151,244.119z M174.947,270.959
			c-10.967,0-19.885-8.918-19.885-19.885s8.918-19.885,19.885-19.885c10.961,0,19.879,8.918,19.879,19.885
			S185.909,270.959,174.947,270.959z"/>
		<path d="M236.785,88.694c0-8.892-7.237-16.125-16.126-16.125h-91.381c-8.891,0-16.127,7.233-16.127,16.125v140.223l104.819-104.82
			v-22.83c0-2.972,2.399-5.375,5.376-5.375s5.376,2.404,5.376,5.375v12.079l8.062-8.062V88.694z M193.11,91.382h-36.284
			c-2.974,0-5.375-2.405-5.375-5.375c0-2.974,2.402-5.375,5.375-5.375h36.284c2.977,0,5.376,2.402,5.376,5.375
			C198.486,88.977,196.086,91.382,193.11,91.382z"/>
		<path d="M288.854,68.418l-41.317,41.316v150.972c0,14.82-12.058,26.878-26.878,26.878h-91.381
			c-14.819,0-26.878-12.058-26.878-26.878v-5.836l-33.714,33.711c27.867,26.026,65.234,42.006,106.283,42.006
			c85.953,0,155.887-69.933,155.887-155.886C330.855,133.653,314.88,96.285,288.854,68.418z"/>
		<path d="M174.947,241.94c5.045,0,9.128,4.09,9.128,9.134c0,5.045-4.083,9.134-9.128,9.134c-5.044,0-9.134-4.089-9.134-9.134
			C165.813,246.03,169.903,241.94,174.947,241.94z"/>
		<path d="M174.701,0C78.216,0,0,78.217,0,174.701c0,96.483,78.215,174.7,174.7,174.7c96.483,0,174.7-78.217,174.7-174.7
			C349.401,78.217,271.184,0,174.701,0z M174.968,341.338c-45.911,0-87.545-18.667-117.71-48.804
			c-0.026-0.021-0.055-0.026-0.076-0.047c-0.021-0.021-0.026-0.053-0.048-0.073C27,262.246,8.331,220.612,8.331,174.701
			c0-91.889,74.75-166.638,166.638-166.638c91.892,0,166.637,74.749,166.637,166.638
			C341.605,266.586,266.86,341.338,174.968,341.338z"/>
	</g>
</g>
<g>
</g>
<g>
</g>
<g>
</g>
<g>
</g>
<g>
</g>
<g>
</g>
<g>
</g>
<g>
</g>
<g>
</g>
<g>
</g>
<g>
</g>
<g>
</g>
<g>
</g>
<g>
</g>
<g>
</g>
</svg>
